# xmcd
#
# Track frame offsets: 
#        150
#        12790
#        23424
#        36429
#        49715
#        61968
#        75468
#        87193
#        97629
#        109325
#        120935
#        131423
#        141661
#        152749
#        165297
#        177335
#        188733
#        199966
#
# Disc length: 2827 seconds
#
# Revision: 0
# Processed by: cddbd v1.5.2PL0 Copyright (c) Steve Scherf et al.
# Submitted via: ExactAudioCopyFreeDBPlugin 1.0
#
DISCID=db0b0912
DTITLE=Various Artist - New Orleans Blues 1940-1953 [CD1]
DYEAR=2004
DGENRE=Blues
TTITLE0=Champion Jack Dupree - Gamblin' man blues
TTITLE1=Cousin Joe - Little wioman blues
TTITLE2=Roy Brown - Special lesson n°1
TTITLE3=Professor Longhair - Walk your blues away
TTITLE4=Professor Longhair - Longhair's blues
TTITLE5=Roosevelt Sykes - Rock it
TTITLE6=Cousin Joe - Living on a borrowod time
TTITLE7=Roy Brown - Rainy weather blues
TTITLE8=Champion Jack Dupree - Going back to Louisiana
TTITLE9=Roosevelt Sykes - New Orleans boogie
TTITLE10=Fats Domino - Don't you lie to me
TTITLE11=Guitar Slim - Woman troubles
TTITLE12=Little Sonny Jones - Going back to the country
TTITLE13=Ray Lewis - Jealous blues
TTITLE14=George Stevenson - Morning train
TTITLE15=Lil Willie Gibson - Brother Bill
TTITLE16=Guitar Slim - I done got over it
TTITLE17=Fats Domino - Please don't leave me
EXTD=
EXTT0=
EXTT1=
EXTT2=
EXTT3=
EXTT4=
EXTT5=
EXTT6=
EXTT7=
EXTT8=
EXTT9=
EXTT10=
EXTT11=
EXTT12=
EXTT13=
EXTT14=
EXTT15=
EXTT16=
EXTT17=
PLAYORDER=
